<?xml version="1.0" encoding="UTF-8" standalone="no"?>
<!-- Generator: Adobe Illustrator 24.0.0, SVG Export Plug-In . SVG Version: 6.00 Build 0)  -->

<svg
   version="1.1"
   id="Layer_1"
   x="0px"
   y="0px"
   viewBox="0 0 421.06298 86.040005"
   xml:space="preserve"
   sodipodi:docname="Blackstone.svg"
   width="421.06299"
   height="86.040001"
   inkscape:version="1.1.1 (1:1.1+202109281949+c3084ef5ed)"
   xmlns:inkscape="http://www.inkscape.org/namespaces/inkscape"
   xmlns:sodipodi="http://sodipodi.sourceforge.net/DTD/sodipodi-0.dtd"
   xmlns="http://www.w3.org/2000/svg"
   xmlns:svg="http://www.w3.org/2000/svg"><defs
   id="defs35" /><sodipodi:namedview
   id="namedview33"
   pagecolor="#ffffff"
   bordercolor="#666666"
   borderopacity="1.0"
   inkscape:pageshadow="2"
   inkscape:pageopacity="0.0"
   inkscape:pagecheckerboard="0"
   showgrid="false"
   width="430.222px"
   inkscape:zoom="1.5175"
   inkscape:cx="186.16145"
   inkscape:cy="49.093904"
   inkscape:window-width="1600"
   inkscape:window-height="869"
   inkscape:window-x="0"
   inkscape:window-y="0"
   inkscape:window-maximized="1"
   inkscape:current-layer="Layer_1" />
<style
   type="text/css"
   id="style2">
	.st0{fill:#FFFFFF;}
</style>
<rect
   style="fill:#000000;stroke-width:4.05043"
   id="rect77"
   width="421.06259"
   height="86.040474"
   x="0"
   y="-2.6501464e-08" /><g
   id="g30"
   transform="translate(10.531302,9.9202337)">
	<path
   class="st0"
   d="m 110.8,41.5 c 0,1.2 -0.3,2.4 -0.8,3.6 -0.5,1.1 -1.2,2.1 -2,2.9 -0.9,0.8 -1.9,1.5 -3,1.9 -1.2,0.5 -2.4,0.7 -3.6,0.7 H 84.9 v -35 h 16.3 c 1.1,0 2.3,0.3 3.3,0.8 1,0.5 1.8,1.2 2.5,2 0.7,0.9 1.2,1.8 1.6,2.9 0.4,1 0.6,2.1 0.6,3.2 0,1.7 -0.4,3.4 -1.3,4.9 -0.9,1.5 -2.1,2.6 -3.7,3.3 1.9,0.5 3.7,1.7 4.8,3.3 1.2,1.6 1.8,3.5 1.8,5.5 z M 87.5,17.8 v 14 h 12.8 c 0.9,0 1.8,-0.2 2.6,-0.6 0.8,-0.4 1.5,-0.9 2,-1.6 1.2,-1.3 1.8,-3.1 1.8,-4.9 0,-0.9 -0.2,-1.8 -0.5,-2.7 -0.3,-0.8 -0.7,-1.6 -1.3,-2.2 -0.5,-0.6 -1.2,-1.2 -1.9,-1.6 -0.8,-0.4 -1.6,-0.6 -2.5,-0.6 z m 20.8,23.4 c 0,-0.9 -0.2,-1.8 -0.5,-2.7 -0.3,-0.9 -0.8,-1.7 -1.4,-2.3 -0.6,-0.7 -1.3,-1.2 -2.1,-1.6 -0.8,-0.4 -1.7,-0.6 -2.6,-0.6 H 87.5 v 14.4 h 13.9 c 0.9,0 1.9,-0.2 2.7,-0.6 0.8,-0.4 1.6,-0.9 2.2,-1.6 0.6,-0.7 1.1,-1.5 1.5,-2.3 0.3,-0.9 0.5,-1.8 0.5,-2.7 z"
   id="path4" />
	<path
   class="st0"
   d="m 117.6,50.6 v -35 h 2.5 V 48.3 H 141 v 2.3 z"
   id="path6" />
	<path
   class="st0"
   d="m 157.3,15.6 h 2.2 l 14.8,35 h -2.7 L 166.7,39.1 H 150 l -4.9,11.5 h -2.7 z M 166,37 158.4,18.7 150.5,37 Z"
   id="path8" />
	<path
   class="st0"
   d="m 175.9,32.8 c 0,-2.1 0.4,-4.2 1.1,-6.2 0.7,-2 1.8,-3.9 3.2,-5.6 1.5,-1.7 3.2,-3 5.2,-4 2.2,-1.1 4.6,-1.6 7,-1.6 2.8,-0.1 5.6,0.7 8,2.1 2.1,1.3 3.8,3.2 4.9,5.5 l -2.1,1.2 c -0.6,-1.1 -1.3,-2.2 -2.2,-3.1 -1.6,-1.6 -3.6,-2.7 -5.8,-3.1 -1,-0.2 -2.1,-0.4 -3.1,-0.4 -2.1,0 -4.1,0.4 -5.9,1.4 -1.7,0.9 -3.1,2.1 -4.3,3.5 -1.2,1.5 -2.1,3.1 -2.7,4.9 -0.6,1.8 -0.9,3.6 -0.9,5.5 0,4 1.4,7.8 4,10.9 1.2,1.4 2.7,2.6 4.4,3.4 1.7,0.9 3.6,1.3 5.5,1.3 1.1,0 2.2,-0.1 3.2,-0.4 2.3,-0.5 4.4,-1.7 6.1,-3.4 0.9,-0.9 1.7,-2 2.2,-3.1 l 2.2,1 c -0.6,1.3 -1.4,2.5 -2.4,3.5 -1,1 -2.2,1.9 -3.4,2.6 -1.3,0.7 -2.6,1.2 -4,1.6 -1.3,0.3 -2.7,0.5 -4.1,0.5 -2.3,0 -4.5,-0.5 -6.6,-1.6 -2,-1 -3.7,-2.4 -5.2,-4.1 -1.5,-1.7 -2.6,-3.7 -3.4,-5.8 -0.5,-2 -0.9,-4.3 -0.9,-6.5 z"
   id="path10" />
	<path
   class="st0"
   d="m 212.3,50.6 v -35 h 2.5 v 21.3 l 20.4,-21.3 h 2.9 l -14.6,15.3 15.3,19.7 H 236 l -14,-18.2 -7.1,7.4 v 10.8 z"
   id="path12" />
	<path
   class="st0"
   d="m 264,21.4 c -2.3,-2.5 -5.5,-3.8 -9.6,-3.8 -3.4,0 -5.9,0.6 -7.5,1.9 -1.6,1.3 -2.4,3.2 -2.3,5.2 0,1 0.2,1.9 0.6,2.8 0.4,0.8 1.1,1.4 1.9,1.9 1,0.6 2.1,1 3.2,1.3 1.3,0.4 2.8,0.7 4.6,1.1 1.8,0.4 3.6,0.8 5.1,1.3 1.4,0.4 2.7,1 3.9,1.8 1,0.7 1.9,1.6 2.5,2.7 0.6,1.2 0.9,2.6 0.9,3.9 0,1.4 -0.3,2.8 -0.9,4 -0.6,1.2 -1.5,2.1 -2.6,2.9 -1.2,0.8 -2.5,1.4 -3.9,1.8 -1.7,0.4 -3.4,0.6 -5.1,0.6 -5.1,0.1 -10.1,-1.7 -13.9,-5.2 l 1.3,-2 c 1.5,1.6 3.4,2.8 5.4,3.7 2.3,0.9 4.7,1.4 7.2,1.3 3.1,0 5.4,-0.6 7.2,-1.7 1.7,-1.1 2.7,-3 2.6,-5.1 0,-1 -0.2,-2 -0.7,-2.9 -0.5,-0.9 -1.2,-1.6 -2,-2.1 -1.1,-0.7 -2.2,-1.2 -3.4,-1.6 -1.4,-0.4 -3,-0.8 -4.8,-1.2 -1.8,-0.4 -3.5,-0.8 -5,-1.3 -1.3,-0.4 -2.5,-0.9 -3.6,-1.7 -0.9,-0.6 -1.7,-1.5 -2.2,-2.4 -0.5,-1.1 -0.8,-2.4 -0.7,-3.6 0,-1.4 0.3,-2.9 0.9,-4.2 0.6,-1.2 1.5,-2.3 2.5,-3.1 1.2,-0.9 2.5,-1.5 3.9,-1.9 1.6,-0.4 3.3,-0.7 5,-0.6 2.1,0 4.1,0.3 6.1,1 1.8,0.7 3.4,1.8 4.8,3.1 z"
   id="path14" />
	<path
   class="st0"
   d="m 297.7,17.8 h -12.8 v 32.7 h -2.5 V 17.8 h -12.8 v -2.3 h 28.1 z"
   id="path16" />
	<path
   class="st0"
   d="m 315.4,50.8 c -2.3,0 -4.6,-0.5 -6.7,-1.6 -2,-1 -3.7,-2.3 -5.2,-3.9 -1.5,-1.7 -2.6,-3.6 -3.4,-5.7 -0.8,-2.1 -1.2,-4.3 -1.2,-6.6 0,-2.3 0.4,-4.6 1.3,-6.7 0.8,-2.1 2,-4 3.5,-5.7 1.5,-1.6 3.2,-3 5.2,-3.9 2,-1 4.3,-1.5 6.5,-1.5 2.3,0 4.6,0.5 6.7,1.6 2,1 3.8,2.4 5.2,4 1.4,1.7 2.6,3.6 3.3,5.7 2.4,6.4 1,13.7 -3.5,18.8 -1.5,1.6 -3.2,3 -5.2,3.9 -2,1.1 -4.2,1.6 -6.5,1.6 z M 301.6,33.1 c 0,2 0.3,3.9 1,5.8 0.6,1.8 1.6,3.5 2.9,4.9 1.2,1.4 2.7,2.6 4.4,3.4 1.7,0.9 3.7,1.3 5.6,1.3 2,0 3.9,-0.4 5.7,-1.3 1.7,-0.9 3.1,-2.1 4.3,-3.5 3.8,-4.6 4.8,-10.8 2.7,-16.4 -0.7,-1.8 -1.6,-3.5 -2.9,-4.9 -1.2,-1.4 -2.7,-2.6 -4.4,-3.4 -3.6,-1.7 -7.7,-1.7 -11.2,0.1 -1.7,0.9 -3.2,2.1 -4.4,3.5 -1.2,1.5 -2.2,3.1 -2.8,5 -0.6,1.6 -0.9,3.5 -0.9,5.5 z"
   id="path18" />
	<path
   class="st0"
   d="m 341.1,20.3 v 30.3 h -2.5 v -35 h 1.9 L 365,46.4 V 15.6 h 2.5 v 35 h -2.3 z"
   id="path20" />
	<path
   class="st0"
   d="m 400,48.3 v 2.3 h -23.3 v -35 h 22.9 v 2.3 H 379.2 V 31.7 H 397 v 2.2 H 379.2 V 48.4 H 400 Z"
   id="path22" />
	<path
   class="st0"
   d="M 39.2,37 C 38.8,36.6 38.4,36.2 37.9,36 37.4,35.8 36.8,35.6 36.3,35.6 H 25.8 v 9.2 H 36 c 0.6,0 1.2,-0.1 1.8,-0.3 0.5,-0.2 1,-0.6 1.4,-1 0.8,-0.9 1.3,-2 1.3,-3.2 -0.1,-1.2 -0.6,-2.4 -1.3,-3.3 z"
   id="path24" />
	<path
   class="st0"
   d="m 37.8,29 c 0.8,-0.9 1.3,-2.1 1.2,-3.3 0.1,-1.2 -0.3,-2.3 -1.1,-3.2 -0.7,-0.8 -1.7,-1.2 -2.7,-1.2 h -9.4 v 8.8 h 9.1 C 36,30.3 37,29.8 37.8,29 Z"
   id="path26" />
	<path
   class="st0"
   d="M 0,0 V 66.2 H 66.2 V 0 Z m 46.3,45.5 c -0.6,1.1 -1.4,2.1 -2.4,2.8 -1.1,0.8 -2.3,1.4 -3.6,1.7 -1.4,0.4 -2.9,0.6 -4.4,0.6 H 19 v -35 h 18.8 c 1.1,0 2.3,0.3 3.3,0.8 1,0.5 1.8,1.2 2.5,2 1.4,1.7 2.2,3.9 2.2,6.1 0,1.7 -0.4,3.3 -1.3,4.8 -0.8,1.5 -2.2,2.7 -3.7,3.3 1.9,0.5 3.6,1.6 4.8,3.2 1.2,1.7 1.8,3.7 1.8,5.7 -0.2,1.4 -0.5,2.8 -1.1,4 z"
   id="path28" />
</g>
</svg>
