<?xml version="1.0" encoding="UTF-8" standalone="no"?>
<svg
   xmlns:dc="http://purl.org/dc/elements/1.1/"
   xmlns:cc="http://creativecommons.org/ns#"
   xmlns:rdf="http://www.w3.org/1999/02/22-rdf-syntax-ns#"
   xmlns:svg="http://www.w3.org/2000/svg"
   xmlns="http://www.w3.org/2000/svg"
   xmlns:sodipodi="http://sodipodi.sourceforge.net/DTD/sodipodi-0.dtd"
   xmlns:inkscape="http://www.inkscape.org/namespaces/inkscape"
   width="150mm"
   height="155.13499mm"
   viewBox="0 0 150 155.13499"
   version="1.1"
   id="svg8"
   inkscape:version="1.0.2 (1.0.2+r75+1)"
   sodipodi:docname="Logo.svg">
  <defs
     id="defs2">
    <inkscape:perspective
       sodipodi:type="inkscape:persp3d"
       inkscape:vp_x="-63.719312 : -143.52853 : 1"
       inkscape:vp_y="0 : 999.99996 : 0"
       inkscape:vp_z="471.46226 : -176.14307 : 1"
       inkscape:persp3d-origin="105 : -42.865008 : 1"
       id="perspective146" />
  </defs>
  <sodipodi:namedview
     id="base"
     pagecolor="#ffffff"
     bordercolor="#666666"
     borderopacity="1.0"
     inkscape:pageopacity="0.0"
     inkscape:pageshadow="2"
     inkscape:zoom="2.1594947"
     inkscape:cx="386.54311"
     inkscape:cy="345.46171"
     inkscape:document-units="mm"
     inkscape:current-layer="g252"
     inkscape:document-rotation="0"
     showgrid="false"
     inkscape:window-width="1366"
     inkscape:window-height="729"
     inkscape:window-x="1600"
     inkscape:window-y="0"
     inkscape:window-maximized="1" />
  <metadata
     id="metadata5">
    <rdf:RDF>
      <cc:Work
         rdf:about="">
        <dc:format>image/svg+xml</dc:format>
        <dc:type
           rdf:resource="http://purl.org/dc/dcmitype/StillImage" />
        <dc:title />
      </cc:Work>
    </rdf:RDF>
  </metadata>
  <g
     inkscape:label="Capa 1"
     inkscape:groupmode="layer"
     id="layer1">
    <rect
       style="fill:#808080;stroke-width:0.17032"
       id="rect257"
       width="150"
       height="155.13516"
       x="0"
       y="0"
       ry="28.200918" />
    <g
       id="g32"
       transform="matrix(0.45436216,0,-0.26020745,0.45436216,45.196748,43.505303)">
      <rect
         style="fill:#ff0000;stroke-width:0.143711"
         id="rect23"
         width="50"
         height="200"
         x="106.28869"
         y="-63.854198" />
      <rect
         style="fill:#ff0000;stroke-width:0.124457"
         id="rect25"
         width="150"
         height="50"
         x="6.288681"
         y="86.145798" />
      <rect
         style="fill:#ff0000;stroke-width:0.101619"
         id="rect27"
         width="50"
         height="100"
         x="6.288681"
         y="36.145798" />
    </g>
    <g
       id="g171"
       transform="matrix(0.4543622,0,0.26232614,0.4543622,5.4645226,43.7457)">
      <g
         id="g252"
         transform="matrix(1,0,-0.57735027,1,43.900368,0)">
        <rect
           style="fill:#000000;stroke-width:0.137986"
           id="rect23-3"
           width="39.999996"
           height="230.47522"
           x="154.59618"
           y="18.35597"
           transform="matrix(1,0,-0.49696211,0.86777224,0,0)" />
        <rect
           style="fill:#000000;stroke-width:0.0975705"
           id="rect65"
           width="46.095043"
           height="99.999985"
           x="18.35597"
           y="-254.59618"
           transform="matrix(-0.49696211,0.86777224,-1,0,0,0)" />
        <rect
           style="fill:#000000;stroke-width:0.0975705"
           id="rect115"
           width="46.095043"
           height="99.999985"
           x="110.54738"
           y="-254.59618"
           transform="matrix(-0.49696211,0.86777224,-1,0,0,0)" />
        <rect
           style="fill:#000000"
           id="rect117"
           width="39.999996"
           height="82.919426"
           x="91.779594"
           y="140.88991"
           transform="matrix(1,0,0.26301406,0.964792,0,0)" />
        <rect
           style="fill:#000000;stroke-width:0.0704087"
           id="rect242"
           width="39.999996"
           height="60.00724"
           x="205.22775"
           y="15.93144"
           transform="matrix(1,0,0.01554147,0.99987922,0,0)" />
        <rect
           style="fill:#000000"
           id="rect244"
           width="39.999996"
           height="90.948578"
           x="292.90112"
           y="115.09383"
           transform="matrix(1,0,-0.75151728,0.65971341,0,0)" />
        <path
           style="fill:#000000;stroke-width:0.00227468"
           d="m 244.40173,75.928829 c 0.367,0 0.969,0 1.336,0 0.368,0 0.07,0 -0.668,0 -0.735,0 -1.036,0 -0.668,0 z"
           id="path47" />
        <path
           style="fill:#000000;stroke-width:0.00227468"
           d="m 245.23973,75.928829 c 0.07,0 0.192,0 0.264,0 0.07,0 0.01,0 -0.133,0 -0.145,0 -0.204,0 -0.131,0 z"
           id="path49" />
        <path
           style="fill:#000000;stroke-width:0.00227468"
           d="m 243.73473,75.071829 v -0.856 h 1.322 1.323 v 0.02 c 0,0.01 0,0.377 0.01,0.817 0,0.439 0.01,0.816 0.01,0.838 v 0.04 h -1.335 -1.335 z"
           id="path51" />
        <path
           style="fill:#000000;stroke-width:0.00227468"
           d="m 243.73473,75.071829 v -0.856 h 1.322 1.323 v 0.02 c 0,0 0,0.377 0.01,0.816 0,0.44 0.01,0.818 0.01,0.84 v 0.04 h -1.335 -1.335 z"
           id="path53" />
        <path
           style="fill:#000000;stroke-width:0.00227468"
           d="m 246.01773,75.928829 c 0.07,0 0.188,0 0.259,0 0.07,0 0.01,0 -0.13,0 -0.143,0 -0.201,0 -0.129,0 z"
           id="path55" />
        <path
           style="fill:#000000;stroke-width:0.00227468"
           d="m 243.73473,75.071829 v -0.856 h 1.322 1.323 v 0.02 c 0,0.01 0,0.08 0,0.158 0,0.314 0.02,1.458 0.02,1.495 v 0.04 h -1.335 -1.335 z"
           id="path57" />
        <path
           style="fill:#000000;stroke-width:0.0171427"
           d="m 232.02673,75.931829 c 2.147,0 5.661,0 7.808,0 2.148,0 0.391,0 -3.904,0 -4.295,0 -6.052,0 -3.904,0 z"
           id="path59" />
        <path
           style="fill:#000000;stroke-width:0.00560697"
           d="m 223.57773,77.386829 v -1.457 h 4.009 4.009 v 1.457 1.458 h -4.009 -4.009 z"
           id="path61" />
        <path
           style="fill:#000000;stroke-width:0.00560697"
           d="m 225.58073,75.924829 c 1.103,0 2.908,0 4.012,0 1.103,0 0.2,0 -2.006,0 -2.207,0 -3.109,0 -2.006,0 z"
           id="path63" />
        <path
           style="fill:#000000;stroke-width:0.00560697"
           d="m 223.57773,74.361829 v -1.561 h 4.009 4.009 v 1.561 1.562 h -4.009 -4.009 z"
           id="path65" />
        <path
           style="fill:#000000;stroke-width:0.00560697"
           d="m 223.57773,77.386829 v -1.457 h 4.009 4.009 v 1.457 1.458 h -4.009 -4.009 z"
           id="path67" />
        <path
           style="fill:#000000;stroke-width:0.00560697"
           d="m 226.57273,75.924829 c 0.558,0 1.47,0 2.027,0 0.558,0 0.102,0 -1.013,0 -1.115,0 -1.571,0 -1.014,0 z"
           id="path69" />
        <path
           style="fill:#000000;stroke-width:0.00560697"
           d="m 227.15873,75.924829 c 0.235,0 0.62,0 0.855,0 0.235,0 0.04,0 -0.427,0 -0.471,0 -0.663,0 -0.428,0 z"
           id="path71" />
        <path
           style="fill:#000000;stroke-width:0.00560697"
           d="m 223.57773,77.386829 v -1.457 h 4.009 4.009 v 1.457 1.458 h -4.009 -4.009 z"
           id="path73" />
        <path
           style="fill:#000000;stroke-width:0.0171767"
           d="m 235.26873,75.924829 c 0.366,0 0.962,0 1.322,0 0.361,0 0.06,0 -0.667,0 -0.727,0 -1.022,0 -0.655,0 z"
           id="path75" />
        <path
           style="fill:#000000;stroke-width:0.0171767"
           d="m 235.81773,75.924829 c 0.06,0 0.164,0 0.223,0 0.06,0 0,0 -0.117,0 -0.122,0 -0.17,0 -0.106,0 z"
           id="path77" />
        <path
           style="fill:#000000;stroke-width:0.0171767"
           d="m 235.99673,75.926829 c 0.01,0 0.03,0 0.04,0 0.01,0 0,0 -0.02,0 -0.02,0 -0.03,0 -0.02,0 z"
           id="path79" />
        <path
           style="fill:#000000;stroke-width:3.35341"
           d=""
           id="path81"
           transform="matrix(0.5823181,0,0,0.5823181,-55.927166,-96.279356)" />
        <path
           style="fill:#000000;stroke-width:3.35341"
           d=""
           id="path83"
           transform="matrix(0.5823181,0,0,0.5823181,-55.927166,-96.279356)" />
        <path
           style="fill:#000000;stroke-width:3.35341"
           d=""
           id="path85"
           transform="matrix(0.5823181,0,0,0.5823181,-55.927166,-96.279356)" />
        <path
           style="fill:#000000;stroke-width:3.35341"
           d=""
           id="path87"
           transform="matrix(0.5823181,0,0,0.5823181,-55.927166,-96.279356)" />
        <path
           style="fill:#000000;stroke-width:0.0171767"
           d="m 233.84273,75.924829 c 0.149,0 0.389,0 0.532,0 0.144,0 0.02,0 -0.271,0 -0.293,0 -0.411,0 -0.261,0 z"
           id="path89" />
        <path
           style="fill:#000000;stroke-width:0.0171767"
           d="m 222.53473,79.819829 v -3.882 h 11.924 11.924 l -0.07,0.06 c -0.04,0.03 -2.027,1.779 -4.422,3.882 l -4.354,3.823 h -7.502 -7.502 z"
           id="path91" />
        <path
           style="fill:#000000;stroke-width:0.0171767"
           d="m 222.53473,79.819829 v -3.882 h 11.924 c 10.042,0 11.921,0 11.9,0.02 -0.01,0.01 -1.958,1.719 -4.32,3.791 -2.362,2.072 -4.34,3.808 -4.396,3.859 l -0.101,0.09 h -7.504 -7.503 z"
           id="path93" />
        <path
           style="fill:#000000;stroke-width:0.0171767"
           d="m 222.53473,70.552829 v -5.368 h 11.852 11.852 v 0.245 c 0,0.28 0.109,7.404 0.137,8.945 0.01,0.562 0.02,1.14 0.02,1.284 v 0.262 h -11.933 -11.934 z"
           id="path95" />
        <path
           style="fill:#000000;stroke-width:0.0171767"
           d="m 222.53473,79.819829 v -3.882 h 11.924 c 7.119,0 11.918,0 11.908,0.01 0,0 -1.999,1.756 -4.422,3.882 l -4.405,3.867 h -7.502 -7.503 z"
           id="path97" />
        <path
           style="fill:#000000;stroke-width:0.0171767"
           d="m 241.27873,75.924829 c 0.451,0 1.189,0 1.641,0 0.451,0 0.08,0 -0.821,0 -0.902,0 -1.271,0 -0.82,0 z"
           id="path99" />
        <path
           style="fill:#000000;stroke-width:0.0171767"
           d="m 222.53473,79.819829 v -3.882 h 11.924 c 10.228,0 11.921,0 11.9,0.02 -0.01,0.01 -2.004,1.76 -4.422,3.882 l -4.396,3.858 h -7.503 -7.503 z"
           id="path101" />
        <path
           style="fill:#000000;stroke-width:0.0171767"
           d="m 222.53473,79.819829 v -3.882 h 11.925 11.924 l -0.04,0.04 c -0.02,0.02 -1.72,1.512 -3.77,3.311 -2.05,1.798 -4.02,3.527 -4.378,3.841 l -0.651,0.572 h -7.504 -7.504 z"
           id="path103" />
        <path
           style="fill:#000000;stroke-width:0.0171767"
           d="m 222.53473,79.819829 v -3.882 h 11.925 c 11.72,0 11.923,0 11.89,0.03 -0.02,0.02 -2.007,1.764 -4.42,3.881 l -4.386,3.85 h -7.504 -7.505 z"
           id="path105" />
        <path
           style="fill:#000000;stroke-width:0.0171767"
           d="m 231.24073,79.456829 v -3.521 h 7.566 c 4.161,0 7.566,0 7.566,0 0,0 -1.134,1.005 -5.612,4.935 l -2.392,2.1 h -3.564 -3.564 z"
           id="path107" />
        <path
           style="fill:#000000;stroke-width:0.0171767"
           d="m 231.24073,79.456829 v -3.521 h 7.566 c 4.161,0 7.566,0 7.566,0 0,0 -1.134,1.005 -5.612,4.935 l -2.392,2.1 h -3.564 -3.564 z"
           id="path109" />
        <path
           style="fill:#000000;stroke-width:0.0171767"
           d="m 231.24073,79.456829 v -3.521 h 7.57 7.571 l -0.09,0.08 c -0.05,0.04 -1.404,1.236 -3.015,2.651 -1.61,1.414 -3.373,2.962 -3.916,3.44 l -0.987,0.868 h -3.569 -3.568 z"
           id="path111" />
        <path
           style="fill:#000000;stroke-width:0.0171767"
           d="m 231.24073,79.456829 v -3.521 h 7.567 c 5.01,0 7.564,0 7.557,0.02 0,0.01 -0.955,0.846 -2.109,1.86 -1.153,1.013 -2.948,2.589 -3.988,3.503 l -1.89,1.661 h -3.569 -3.568 z"
           id="path113" />
        <path
           style="fill:#000000;stroke-width:0.0171767"
           d="m 231.24073,79.456829 v -3.521 h 7.57 7.571 l -0.09,0.08 c -0.05,0.04 -1.408,1.242 -3.023,2.66 -1.615,1.418 -3.377,2.966 -3.915,3.439 l -0.979,0.861 h -3.569 -3.568 z"
           id="path115" />
        <path
           style="fill:#000000;stroke-width:0.0171767"
           d="m 231.24073,70.190829 v -5.729 h 7.487 7.487 l 0.01,0.417 c 0,0.229 0.04,2.202 0.07,4.384 0.05,3.543 0.07,4.622 0.103,6.205 v 0.451 h -7.584 -7.583 z"
           id="path117" />
        <path
           style="fill:#000000;stroke-width:0.147901"
           d="m 84.764733,132.25383 v -10.212 l 7.521,-13.12 C 104.28773,87.983829 121.66673,57.636829 134.03573,36.014829 l 11.443,-20.003 h 49.937 49.937 l 0.09,3.735 c 0.05,2.054 0.229,12.62 0.395,23.479 0.165,10.86 0.355,22.639 0.422,26.177 0.07,3.537 0.09,6.499 0.05,6.581 -0.06,0.133 -8.048,7.104 -9.255,8.077 -0.262,0.211 -13.645,11.941 -29.74,26.067001 l -29.265,25.684 -30.693,0.04 -30.694,0.04 -1.865,3.286 -1.865,3.286 h -14.086997 -14.088 z m 110.259997,-46.212001 11.374,-9.984 8.068,-0.03 8.068,-0.04 -8.004,-0.04 -8.004,-0.04 -0.09,-4.029 c -0.05,-2.216 -0.135,-6.742 -0.187,-10.057 l -0.1,-6.027 -21.823,0.04 -21.823,0.04 -11.434,19.966 c -6.289,10.982 -11.435,20.017 -11.435,20.078 0,0.06 9.903,0.111 22.007,0.111 h 22.007 z"
           id="path119" />
        <path
           style="fill:#000000;stroke-width:0.147901"
           d="m 84.764733,132.24283 v -10.224 l 7.558,-13.182 C 100.82573,94.008829 117.07873,65.627829 134.06973,35.939829 l 11.406,-19.93 h 49.938 49.939 l 0.09,3.587 c 0.05,1.973 0.228,12.438 0.393,23.257 0.165,10.819 0.355,22.666 0.422,26.327 0.07,3.66 0.09,6.722 0.06,6.803 -0.08,0.174 -7.985,7.109 -8.599,7.543 -0.388,0.274 -7.995,6.939 -45.55,39.907001 l -14.098,12.377 h -30.669 -30.668 l -1.897,3.326 -1.896,3.326 h -14.086997 -14.088 z m 110.255997,-46.201001 11.373,-9.984 7.331,-0.03 7.331,-0.04 -7.264,-0.04 -7.265,-0.04 -0.09,-3.881 c -0.05,-2.135 -0.135,-6.66 -0.187,-10.057 l -0.1,-6.175 -21.816,0.04 -21.816,0.04 -11.439,19.966 c -6.291,10.982 -11.44,20.017 -11.442,20.078 0,0.06 9.9,0.111 22.003,0.111 h 22.005 z"
           id="path121" />
        <path
           style="fill:#000000;stroke-width:0.147901"
           d="m 84.764733,132.23683 v -10.229 l 7.299,-12.733 C 102.03973,91.871829 120.24273,60.083829 134.01873,36.013829 l 11.447,-20.004 h 49.944 49.943 l 0.09,3.587 c 0.05,1.973 0.228,12.405 0.392,23.183 0.164,10.779 0.355,22.623 0.424,26.32 0.07,3.698 0.1,6.792 0.06,6.878 -0.04,0.08 -2.066,1.885 -4.509,4 -2.443,2.115 -5.784,5.013 -7.423,6.44 -2.508,2.182 -37.926,33.247001 -52.053,45.654001 l -4.256,3.739 h -30.675 -30.674 l -1.897,3.326 -1.896,3.326 h -14.086997 -14.088 z m 110.243997,-46.196001 11.373,-9.983 5.34,-0.03 5.341,-0.04 -5.271,-0.04 -5.27,-0.04 -0.09,-4.029 c -0.05,-2.215 -0.141,-6.724 -0.201,-10.018 l -0.11,-5.99 -16.787,-0.05 c -9.232,-0.03 -19.056,0 -21.83,0.05 l -5.044,0.1 -11.394,19.913 c -6.267,10.952 -11.365,19.963 -11.328,20.024 0.04,0.06 9.93,0.111 21.985,0.11 h 21.917 l 11.372,-9.983 z"
           id="path123" />
        <path
           style="fill:#000000;stroke-width:0.147901"
           d="m 84.764733,132.22383 v -10.242 l 7.336,-12.794 C 101.40673,92.960829 119.45273,61.449829 134.09073,35.865829 l 11.362,-19.856 h 49.95 49.949 l 0.09,3.439 c 0.05,1.891 0.228,12.224 0.391,22.962 0.164,10.737 0.355,22.645 0.426,26.462 0.07,3.817 0.1,7.011 0.06,7.099 -0.04,0.09 -2.103,1.924 -4.589,4.08 -8.854,7.674 -13.125,11.415 -47.263,41.381001 l -16.378,14.378 h -30.681 -30.681 l -1.897,3.326 -1.896,3.326 h -14.086997 -14.088 z m 110.240997,-46.184001 11.369,-9.982 3.569,-0.03 3.569,-0.03 -3.496,-0.04 -3.496,-0.04 -0.09,-3.88 c -0.05,-2.134 -0.142,-6.641 -0.201,-10.017 l -0.109,-6.138 -16.047,-0.05 c -8.826,-0.03 -18.645,0 -21.82,0.05 l -5.773,0.1 -0.947,1.647 c -6.643,11.559 -21.747,38.032 -21.747,38.118 0,0.06 0.117,0.144 0.259,0.181 0.143,0.04 10.009,0.08 21.927,0.08 l 21.667,0.02 z"
           id="path125" />
        <path
           style="fill:#000000;stroke-width:0.147901"
           d="m 84.764733,132.22383 v -10.242 l 7.076,-12.35 C 104.75073,87.097829 122.57273,55.978829 134.08473,35.865829 l 11.366,-19.856 h 49.951 49.951 l 0.09,3.291 c 0.05,1.81 0.226,11.976 0.389,22.592 0.163,10.616 0.358,22.582 0.434,26.591 0.08,4.01 0.102,7.371 0.06,7.469 -0.09,0.2 -3.479,3.194 -8.374,7.396 -1.782,1.529 -15.978,13.959 -31.547,27.621001 l -28.308,24.841 h -30.676 -30.676 l -1.896,3.327 -1.897,3.328 h -14.094997 -14.095 z m 110.233997,-46.186001 11.362,-9.98 2.541,-0.03 2.541,-0.03 -2.461,-0.04 -2.461,-0.05 -0.1,-3.731 c -0.05,-2.052 -0.143,-6.559 -0.201,-10.016 l -0.107,-6.286 -10.279,-0.05 c -5.653,-0.03 -15.474,0 -21.823,0.06 l -11.544,0.101 -11.344,19.838 c -6.239,10.911 -11.344,19.885 -11.344,19.941 0,0.196 1.612,0.212 22.703,0.236 l 21.15,0.03 z"
           id="path127" />
        <path
           style="fill:#000000;stroke-width:0.147901"
           d="m 84.764733,132.21483 v -10.252 l 10.591,-18.478 C 103.79873,88.754829 138.61373,27.951829 144.19373,18.191829 l 1.247,-2.182 h 49.956 49.957 l 0.09,2.995 c 0.05,1.648 0.256,13.744 0.456,26.881 0.2,13.138 0.405,25.265 0.456,26.95 l 0.09,3.063 -0.496,0.458 c -0.273,0.252 -2.383,2.102 -4.69,4.11 -8.492,7.395 -24.849,21.725001 -43.726,38.307001 l -19.375,17.019 h -30.709 -30.708 l -1.896,3.327 -1.897,3.328 h -14.094997 -14.095 z m 110.229997,-46.177001 11.358,-9.98 1.731,-0.03 1.732,-0.03 -1.664,-0.05 -1.664,-0.05 -0.02,-1.068 c 0,-0.587 -0.09,-5.094 -0.185,-10.015 l -0.17,-8.948 -13.829,-0.01 c -7.605,0 -17.422,0.02 -21.815,0.05 l -7.987,0.06 -9.278,16.22 c -10.301,18.007 -13.276,23.232 -13.382,23.5 -0.101,0.256 0.907,0.269 23.77,0.301 l 20.04,0.03 z"
           id="path129" />
        <path
           style="fill:#000000;stroke-width:0.147901"
           d="m 84.764733,132.20683 v -10.26 l 5.713,-9.966 c 6.871,-11.986001 27.465997,-47.948001 43.377997,-75.745001 l 11.578,-20.226 h 49.96 49.96 l 0.09,2.847 c 0.05,1.566 0.256,13.563 0.457,26.66 0.2,13.096 0.404,25.309 0.454,27.14 l 0.09,3.327 -4.767,4.142 c -5.863,5.093 -22.357,19.526 -37.929,33.191001 -6.426,5.639 -14.823,13.007 -18.659,16.373 l -6.975,6.121 h -30.685 -30.685 l -1.896,3.327 -1.897,3.328 h -14.094997 -14.095 z m 110.223997,-46.170001 11.352,-9.979 1.22,-0.03 1.219,-0.03 -1.124,-0.05 -1.124,-0.05 -0.09,-2.694 c -0.05,-1.481 -0.138,-5.961 -0.192,-9.955 l -0.1,-7.261 -6.845,-0.08 c -3.764,-0.04 -13.59,-0.04 -21.834,0 l -14.989,0.08 -11.348,19.853 c -6.241,10.919 -11.348,19.892 -11.348,19.94 0,0.143 3.887,0.175 24.404,0.205 l 19.449,0.03 z"
           id="path131" />
        <path
           style="fill:#000000;stroke-width:0.147901"
           d="m 84.764733,132.20183 v -10.264 l 10.073,-17.578 c 5.539997,-9.668001 17.329997,-30.258001 26.200997,-45.754001 8.87,-15.496 17.988,-31.42 20.261,-35.386 l 4.134,-7.21 h 49.96 49.96 l 0.09,2.699 c 0.05,1.485 0.257,13.349 0.457,26.364 0.199,13.015 0.404,25.295 0.454,27.288 l 0.09,3.623 -4.267,3.712 c -2.346,2.042 -6.163,5.365 -8.481,7.386 -4.666,4.067 -42.013,36.820001 -50.287,44.100001 l -5.25,4.621 h -30.697 -30.697 l -1.897,3.327 -1.896,3.328 h -14.106997 -14.106 z m 110.221997,-46.167001 11.35,-9.977 0.852,-0.03 0.852,-0.03 -0.755,-0.05 -0.755,-0.05 -0.09,-2.618 c -0.05,-1.44 -0.131,-5.779 -0.177,-9.643 -0.05,-3.864 -0.115,-7.176 -0.153,-7.359 l -0.07,-0.333 -21.775,0.04 -21.776,0.04 -8.175,14.272 c -8.833,15.42 -14.528,25.424 -14.528,25.521 0,0.103 6.034,0.145 25.292,0.173 l 18.561,0.03 z"
           id="path133" />
        <path
           style="fill:#000000;stroke-width:0.147901"
           d="m 84.764733,132.19483 v -10.272 l 8.375,-14.613 c 4.607,-8.037001 14.700997,-25.661001 22.431997,-39.164001 7.73,-13.504 17.6,-30.742 21.932,-38.307 l 7.876,-13.755 49.987,-0.04 49.987,-0.04 0.09,2.551 c 0.1,2.87 0.135,4.975 0.535,30.949 0.157,10.168 0.329,20.285 0.382,22.481 l 0.09,3.993 -4.845,4.216 c -8.406,7.311 -31.278,27.348001 -53.239,46.640001 l -10.205,8.964 h -30.697 -30.697 l -1.897,3.327 -1.896,3.328 h -14.106997 -14.106 z M 194.98173,86.034829 c 11.065,-9.73 11.361,-9.977 11.98,-10.002 0.615,-0.02 0.618,-0.03 0.102,-0.08 l -0.534,-0.06 -0.09,-2.396 c -0.05,-1.317 -0.13,-5.523 -0.175,-9.347 -0.04,-3.823 -0.116,-7.234 -0.159,-7.58 l -0.08,-0.629 -21.769,0.04 -21.77,0.04 -11.277,19.731 c -6.203,10.852 -11.278,19.819 -11.278,19.928 0,0.237 2.482,0.266 26.844,0.306 l 16.861,0.03 z"
           id="path135" />
        <path
           style="fill:#000000;stroke-width:0.147901"
           d="m 84.764733,132.18583 v -10.279 l 6.38,-11.129 c 6.763,-11.797001 24.012997,-41.918001 42.836997,-74.801001 l 11.389,-19.893 49.992,-0.04 49.992,-0.04 0.09,2.403 c 0.05,1.322 0.257,12.953 0.457,25.846 0.199,12.894 0.405,25.306 0.458,27.584 l 0.09,4.141 -4.416,3.846 c -7.417,6.46 -31.803,27.817001 -48.274,42.278001 l -15.603,13.7 h -30.697 -30.697 l -1.897,3.327 -1.896,3.328 h -14.106997 -14.106 z M 194.95173,86.042829 c 10.017,-8.823 11.374,-9.97 11.832,-9.998 0.428,-0.03 0.45,-0.04 0.13,-0.09 l -0.387,-0.06 -0.09,-2.396 c -0.05,-1.317 -0.128,-5.324 -0.172,-8.903 -0.04,-3.579 -0.116,-6.99 -0.161,-7.58 l -0.08,-1.073 -21.762,0.04 -21.762,0.04 -8.254,14.42 c -12.282,21.456 -14.358,25.153 -14.209,25.303 0.153,0.152 5.96,0.202 28.002,0.241 l 15.603,0.03 z"
           id="path137" />
        <path
           style="fill:#000000;stroke-width:0.147901"
           d="m 84.764733,132.18183 v -10.284 l 12.772,-22.291001 c 10.807997,-18.863 33.290997,-58.124 44.695997,-78.05 l 3.132,-5.473 49.995,-0.04 49.995,-0.04 0.09,2.256 c 0.1,2.494 0.125,4.131 0.537,30.431 0.157,10.046 0.33,20.295 0.383,22.776 l 0.1,4.511 -5.009,4.363 c -9.673,8.427 -59.92,52.465001 -62.386,54.678001 l -0.876,0.786 h -30.701 -30.701 l -1.896,3.326 -1.897,3.326 h -14.113997 -14.114 z M 189.77473,90.598829 c 14.072,-12.4 16.556,-14.541 16.892,-14.558 0.218,-0.01 0.253,-0.04 0.1,-0.08 -0.303,-0.08 -0.391,-2.009 -0.502,-10.92 -0.04,-3.498 -0.117,-6.976 -0.163,-7.729 l -0.08,-1.368 -21.759,0.04 -21.758,0.04 -5.079,8.874 c -13.576,23.72 -17.565,30.776 -17.454,30.871 0.09,0.08 16.277,0.195 29.546,0.219 l 14.124,0.03 z"
           id="path139" />
        <path
           style="fill:#000000;stroke-width:0.147901"
           d="m 84.764733,132.17883 v -10.288 l 9.592,-16.741 c 5.276,-9.208001 15.403997,-26.892001 22.505997,-39.297001 7.103,-12.405 16.421,-28.678 20.706,-36.162 l 7.793,-13.607 49.997,-0.04 49.996,-0.04 0.09,2.108 c 0.09,2.272 0.109,3.096 0.537,30.209 0.157,9.924 0.33,20.209 0.384,22.854 l 0.1,4.811 -4.495,3.913 c -8.691,7.568 -43.667,38.215001 -59.284,51.946001 l -4.502,3.96 h -30.698 -30.698 l -1.896,3.326 -1.897,3.326 h -14.113997 -14.114 z M 188.56073,91.642829 c 14.484,-12.73 17.787,-15.585 18.03,-15.587 0.207,0 0.221,-0.03 0.07,-0.13 -0.163,-0.103 -0.227,-1.696 -0.338,-8.391 -0.08,-4.545 -0.174,-9.012 -0.22,-9.928 l -0.08,-1.664 -21.759,0.04 -21.759,0.04 -10.062,17.614 c -11.282,19.75 -12.53,21.971 -12.413,22.089 0.09,0.09 14.859,0.219 31.9,0.27 l 11.654,0.03 z"
           id="path141" />
        <path
           style="fill:#000000"
           d="m 84.764733,132.16983 v -10.295 l 11.664,-20.357 C 107.07273,82.941829 126.23473,49.480829 139.93173,25.549829 l 5.418,-9.466 50.003,-0.04 50.003,-0.04 0.09,1.96 c 0.09,2.107 0.106,2.821 0.537,30.061 0.157,9.924 0.33,20.274 0.385,22.999 l 0.1,4.955 -4.569,3.991 c -9.908,8.654 -23.962,20.955001 -33.115,28.982001 -5.287,4.638 -13.973,12.256 -19.301,16.929 -5.328,4.673 -10.042,8.818 -10.476,9.21 l -0.788,0.714 h -30.715 -30.714 l -1.896,3.326 -1.897,3.326 h -14.113997 -14.114 z M 187.96273,92.159829 c 14.859,-13.051 18.387,-16.102 18.627,-16.104 0.205,0 0.221,-0.03 0.07,-0.128 -0.159,-0.101 -0.226,-1.674 -0.336,-7.948 -0.08,-4.301 -0.176,-8.77 -0.223,-9.929 l -0.09,-2.107 h -20.802 c -11.441,0 -21.244,0.04 -21.785,0.09 l -0.983,0.09 -9.099,15.916 c -11.181,19.559 -13.434,23.561 -13.325,23.67 0.09,0.09 15.584,0.213 33.597,0.273 l 9.946,0.03 z"
           id="path143" />
        <path
           style="fill:#000000;stroke-width:0.00478005"
           d="m 203.97073,78.342829 v -0.271 l 1.217,-1.068 1.216,-1.068 h 0.133 0.133 -0.131 -0.13 v -0.03 c 0,-0.06 -0.03,-2.173 -0.04,-2.303 v -0.138 h 2.218 2.219 v 2.577 2.576 h -3.418 -3.418 z"
           id="path147" />
        <path
           style="fill:#000000;stroke-width:0.00478005"
           d="m 203.97073,78.342829 v -0.272 l 1.217,-1.067 1.216,-1.068 h 0.118 0.119 -0.116 -0.116 v -0.02 c 0,-0.06 -0.03,-2.179 -0.04,-2.305 v -0.138 h 2.218 2.219 v 2.577 2.576 h -3.418 -3.418 z"
           id="path149" />
        <path
           style="fill:#000000;stroke-width:0.00478005"
           d="m 206.45073,75.929829 c 0.01,0 0.04,0 0.05,0 0.01,0 0,0 -0.03,0 -0.03,0 -0.04,0 -0.02,0 z"
           id="path151" />
        <path
           style="fill:#000000;stroke-width:0.0152981"
           d="m 352.39989,395.83447 v -2.92194 h 10.93816 10.93816 v 2.92194 2.92194 h -10.93816 -10.93816 z"
           id="path74"
           transform="matrix(0.5823181,0,0,0.5823181,-55.927166,-96.279356)" />
        <path
           style="fill:#000000;stroke-width:0.122316"
           d="m 313.82045,398.68939 c 3.54869,-0.018 9.35563,-0.018 12.90432,0 3.54869,0.018 0.64521,0.0328 -6.45216,0.0328 -7.09738,0 -10.00085,-0.0147 -6.45216,-0.0328 z"
           id="path78"
           transform="matrix(0.5823181,0,0,0.5823181,-55.927166,-96.279356)" />
        <path
           style="fill:#000000;stroke-width:0.122316"
           d="m 315.72215,398.69001 c 0.5582,-0.0227 1.43888,-0.0226 1.95705,2.8e-4 0.51818,0.0229 0.0615,0.0415 -1.01491,0.0413 -1.07638,-1.6e-4 -1.50034,-0.0189 -0.94214,-0.0416 z"
           id="path80"
           transform="matrix(0.5823181,0,0,0.5823181,-55.927166,-96.279356)" />
        <path
           style="fill:#000000;stroke-width:0.065563"
           d="m 377.16364,398.76055 c 1.61367,-0.01 4.25422,-0.01 5.86789,0 1.61367,0.01 0.29339,0.0178 -2.93395,0.0178 -3.22733,0 -4.54761,-0.008 -2.93394,-0.0178 z"
           id="path82"
           transform="matrix(0.5823181,0,0,0.5823181,-55.927166,-96.279356)" />
        <path
           style="fill:#000000;stroke-width:0.065563"
           d="m 321.54981,379.99312 v -18.75103 h 46.87756 46.87755 l -0.005,12.83396 -0.005,12.83396 -0.53602,0.46538 c -1.26693,1.09994 -11.5385,10.12584 -12.07512,10.61072 -0.32453,0.29324 -0.67016,0.58377 -0.76805,0.6456 -0.16767,0.10588 -2.5138,0.11243 -40.27213,0.11243 h -40.09409 z"
           id="path84"
           transform="matrix(0.5823181,0,0,0.5823181,-55.927166,-96.279356)" />
        <path
           style="fill:#000000;stroke-width:0.065563"
           d="m 384.04776,398.76082 c 0.35158,-0.0118 0.92689,-0.0118 1.27848,0 0.35158,0.0118 0.0639,0.0214 -0.63924,0.0214 -0.70317,0 -0.99083,-0.01 -0.63924,-0.0214 z"
           id="path86"
           transform="matrix(0.5823181,0,0,0.5823181,-55.927166,-96.279356)" />
        <path
           style="fill:#000000;stroke-width:0.065563"
           d="m 321.54981,379.99312 v -18.75103 h 46.87756 46.87755 l -0.003,12.83396 -0.003,12.83396 -1.09501,0.95577 c -2.05633,1.79484 -8.2379,7.22964 -10.13205,8.90803 -1.03987,0.92141 -1.98397,1.73998 -2.09801,1.81903 l -0.20736,0.14374 -40.10817,0.004 -40.10822,0.004 z"
           id="path88"
           transform="matrix(0.5823181,0,0,0.5823181,-55.927166,-96.279356)" />
        <path
           style="fill:#000000;stroke-width:0.065563"
           d="m 321.54981,379.99312 v -18.75103 h 46.87756 46.87755 l -0.002,12.83396 -0.002,12.83396 -2.2095,1.93411 c -1.21523,1.06376 -4.16773,3.66006 -6.5611,5.76955 -2.39339,2.10949 -4.44376,3.90182 -4.55639,3.98295 l -0.2048,0.14752 h -40.11002 -40.11003 z"
           id="path90"
           transform="matrix(0.5823181,0,0,0.5823181,-55.927166,-96.279356)" />
        <path
           style="fill:#000000;stroke-width:0.065563"
           d="m 321.54981,379.99312 v -18.75103 h 46.87756 46.87755 l -6.5e-4,12.83396 -6.6e-4,12.83396 -1.16139,1.01623 c -2.10625,1.84299 -8.2112,7.207 -10.14698,8.91546 -1.04573,0.92294 -1.97427,1.72855 -2.06343,1.79026 -0.15249,0.10557 -2.52651,0.11218 -40.27202,0.11218 h -40.10998 z"
           id="path92"
           transform="matrix(0.5823181,0,0,0.5823181,-55.927166,-96.279356)" />
        <path
           style="fill:#000000;stroke-width:0.065563"
           d="m 321.54981,379.99312 v -18.75103 h 46.87756 46.87755 v 12.83396 12.83396 l -1.98201,1.73742 c -1.09009,0.95559 -4.06247,3.56739 -6.60527,5.80402 -2.5428,2.23663 -4.69622,4.11747 -4.78537,4.17964 -0.15343,0.10672 -2.40741,0.11305 -40.27248,0.11305 h -40.10998 z"
           id="path94"
           transform="matrix(0.5823181,0,0,0.5823181,-55.927166,-96.279356)" />
        <path
           style="fill:#000000;stroke-width:0.065563"
           d="m 321.54981,379.99312 v -18.75103 h 46.87756 46.87755 v 12.83428 12.83428 l -0.90149,0.79161 c -0.49582,0.43539 -3.46828,3.04691 -6.60547,5.80337 -3.13719,2.75646 -5.77693,5.06277 -5.86609,5.12513 -0.15322,0.10716 -2.36057,0.11338 -40.27208,0.11338 h -40.10998 z"
           id="path96"
           transform="matrix(0.5823181,0,0,0.5823181,-55.927166,-96.279356)" />
        <path
           style="fill:#000000;stroke-width:0.065563"
           d="m 374.86893,398.76082 c 0.35159,-0.0118 0.9269,-0.0118 1.27848,0 0.35158,0.0118 0.0639,0.0214 -0.63924,0.0214 -0.70316,0 -0.99082,-0.01 -0.63924,-0.0214 z"
           id="path98"
           transform="matrix(0.5823181,0,0,0.5823181,-55.927166,-96.279356)" />
        <path
           style="fill:#000000;stroke-width:0.065563"
           d="m 375.00006,398.76451 c 0.0631,-0.0165 0.16637,-0.0165 0.22947,0 0.0631,0.0165 0.0115,0.03 -0.11473,0.03 -0.12621,0 -0.17784,-0.0135 -0.11474,-0.03 z"
           id="path100"
           transform="matrix(0.5823181,0,0,0.5823181,-55.927166,-96.279356)" />
        <path
           style="fill:#000000;stroke-width:0.065563"
           d="m 321.54981,379.99312 v -18.75103 h 46.87756 46.87755 v 12.83871 12.83871 l -0.40976,0.35878 c -0.22538,0.19733 -3.19784,2.80712 -6.60548,5.79953 -3.40764,2.99241 -6.26865,5.4915 -6.35781,5.55353 -0.15288,0.10638 -2.44282,0.11279 -40.27208,0.11279 h -40.10998 z"
           id="path102"
           transform="matrix(0.5823181,0,0,0.5823181,-55.927166,-96.279356)" />
        <path
           style="fill:#000000;stroke-width:0.065563"
           d="m 321.54981,379.99312 v -18.75103 h 46.87756 46.87755 v 12.83725 12.83724 l -6.59963,5.79905 c -3.6298,3.18947 -6.67602,5.85047 -6.76939,5.91334 -0.16095,0.10839 -2.24643,0.11433 -40.27791,0.11474 l -40.10818,4.3e-4 z"
           id="path104"
           transform="matrix(0.5823181,0,0,0.5823181,-55.927166,-96.279356)" />
        <path
           style="fill:#000000;stroke-width:0.065563"
           d="m 321.54981,379.99312 v -18.75103 h 46.87756 46.87755 v 12.84042 12.84042 l -6.59936,5.79587 c -3.62965,3.18773 -6.67587,5.8473 -6.76938,5.91017 -0.16121,0.10839 -2.24681,0.11433 -40.27819,0.11474 l -40.10818,4.3e-4 z"
           id="path106"
           transform="matrix(0.5823181,0,0,0.5823181,-55.927166,-96.279356)" />
        <path
           style="fill:#000000;stroke-width:0.065563"
           d="m 321.54981,379.99312 v -18.75103 h 46.87756 46.87755 v 12.84149 12.84149 l -6.59876,5.7948 c -3.62932,3.18714 -6.67554,5.84623 -6.76938,5.9091 -0.16178,0.10839 -2.24764,0.11433 -40.27879,0.11474 l -40.10818,4.3e-4 z"
           id="path108"
           transform="matrix(0.5823181,0,0,0.5823181,-55.927166,-96.279356)" />
        <path
           style="fill:#000000;stroke-width:0.065563"
           d="m 321.54981,379.99312 v -18.75103 h 46.87756 46.87755 v 12.84326 12.84325 l -1.81844,1.597 c -8.28838,7.27908 -11.50721,10.09156 -11.61666,10.15013 -0.0884,0.0473 -12.50628,0.0684 -40.22391,0.0684 h -40.0961 z"
           id="path110"
           transform="matrix(0.5823181,0,0,0.5823181,-55.927166,-96.279356)" />
        <path
           style="fill:#000000;stroke-width:0.065563"
           d="m 321.54981,379.99312 v -18.75103 h 46.87756 46.87755 v 12.84499 12.84498 l -5.81871,5.10627 c -7.40358,6.49708 -7.36169,6.46051 -7.55434,6.59372 -0.1525,0.10544 -2.53964,0.11209 -40.27208,0.11209 h -40.10998 z"
           id="path112"
           transform="matrix(0.5823181,0,0,0.5823181,-55.927166,-96.279356)" />
        <path
           style="fill:#000000;stroke-width:0.065563"
           d="m 321.54981,379.99312 v -18.75103 h 46.87756 46.87755 v 12.84631 12.84631 l -6.59653,5.78998 c -3.62809,3.18449 -6.67431,5.84141 -6.76938,5.90428 -0.16389,0.10838 -2.25073,0.11433 -40.28102,0.11474 l -40.10818,4.3e-4 z"
           id="path114"
           transform="matrix(0.5823181,0,0,0.5823181,-55.927166,-96.279356)" />
        <rect
           style="fill:#000000;stroke-width:0.573698"
           id="rect116"
           width="39.034073"
           height="20.964735"
           x="129.21063"
           y="116.12936"
           ry="0" />
      </g>
    </g>
  </g>
</svg>
