<?xml version="1.0" encoding="UTF-8" standalone="no"?>
<svg
   xmlns:dc="http://purl.org/dc/elements/1.1/"
   xmlns:cc="http://creativecommons.org/ns#"
   xmlns:rdf="http://www.w3.org/1999/02/22-rdf-syntax-ns#"
   xmlns:svg="http://www.w3.org/2000/svg"
   xmlns="http://www.w3.org/2000/svg"
   xmlns:sodipodi="http://sodipodi.sourceforge.net/DTD/sodipodi-0.dtd"
   xmlns:inkscape="http://www.inkscape.org/namespaces/inkscape"
   version="1.1"
   id="layer"
   x="0px"
   y="0px"
   viewBox="0 0 202 202"
   xml:space="preserve"
   sodipodi:docname="ionic.svg"
   width="202"
   height="202"
   inkscape:version="1.0.2 (1.0.2+r75+1)"><metadata
   id="metadata21"><rdf:RDF><cc:Work
       rdf:about=""><dc:format>image/svg+xml</dc:format><dc:type
         rdf:resource="http://purl.org/dc/dcmitype/StillImage" /><dc:title></dc:title></cc:Work></rdf:RDF></metadata><defs
   id="defs19">
	
	
</defs><sodipodi:namedview
   pagecolor="#ffffff"
   bordercolor="#666666"
   borderopacity="1"
   objecttolerance="10"
   gridtolerance="10"
   guidetolerance="10"
   inkscape:pageopacity="0"
   inkscape:pageshadow="2"
   inkscape:window-width="1600"
   inkscape:window-height="861"
   id="namedview17"
   showgrid="false"
   inkscape:zoom="0.96941268"
   inkscape:cx="303.63863"
   inkscape:cy="324.41248"
   inkscape:window-x="0"
   inkscape:window-y="0"
   inkscape:window-maximized="1"
   inkscape:current-layer="layer" />
<style
   type="text/css"
   id="style2">
	.st0{fill:#3880FF;}
</style>
<g
   id="icon"
   transform="matrix(0.9970385,0,0,0.9970385,-25.623889,-223.63574)">
		<path
   id="Shape"
   class="st0"
   d="m 127,279.6 c -25.5,0 -46.2,20.7 -46.2,46.2 0,25.5 20.7,46.2 46.2,46.2 25.5,0 46.2,-20.7 46.2,-46.2 -0.1,-25.6 -20.8,-46.2 -46.2,-46.2 z" />
		<circle
   id="Oval"
   class="st0"
   cx="193.2"
   cy="262.60001"
   r="21.1" />
		<path
   id="Shape_1_"
   class="st0"
   d="m 219.1,283.7 -0.8,-1.9 -1.4,1.7 c -3.4,3.9 -7.9,6.9 -12.7,8.7 l -1.4,0.6 0.6,1.4 c 4.3,10.1 6.3,20.8 6.3,31.7 0,45.6 -37.1,82.8 -82.8,82.8 -45.7,0 -82.7,-37.2 -82.7,-82.8 0,-45.6 37.1,-82.8 82.8,-82.8 12.4,0 24.2,2.8 35.4,8 l 1.2,0.6 0.6,-1.4 c 2.1,-4.8 5.2,-9 9.4,-12.3 l 1.7,-1.4 -1.9,-1 c -14.5,-7.4 -30,-11.3 -46.4,-11.3 -55.8,0 -101.3,45.5 -101.3,101.3 0,55.8 45.5,101.3 101.3,101.3 55.8,0 101.3,-45.5 101.3,-101.3 -0.1,-14.5 -3.2,-28.5 -9.2,-41.9 z" />
	</g>
</svg>
