<?xml version="1.0" encoding="UTF-8" standalone="no"?>
<svg
   xmlns:dc="http://purl.org/dc/elements/1.1/"
   xmlns:cc="http://creativecommons.org/ns#"
   xmlns:rdf="http://www.w3.org/1999/02/22-rdf-syntax-ns#"
   xmlns:svg="http://www.w3.org/2000/svg"
   xmlns="http://www.w3.org/2000/svg"
   xmlns:sodipodi="http://sodipodi.sourceforge.net/DTD/sodipodi-0.dtd"
   xmlns:inkscape="http://www.inkscape.org/namespaces/inkscape"
   height="49.577999"
   viewBox="0 0 82 89.240398"
   version="1.1"
   style="shape-rendering:auto"
   id="svg4"
   sodipodi:docname="nextjs.svg"
   width="82"
   inkscape:version="1.0.2 (1.0.2+r75+1)">
  <metadata
     id="metadata10">
    <rdf:RDF>
      <cc:Work
         rdf:about="">
        <dc:format>image/svg+xml</dc:format>
        <dc:type
           rdf:resource="http://purl.org/dc/dcmitype/StillImage" />
        <dc:title></dc:title>
      </cc:Work>
    </rdf:RDF>
  </metadata>
  <defs
     id="defs8" />
  <sodipodi:namedview
     pagecolor="#ffffff"
     bordercolor="#666666"
     borderopacity="1"
     objecttolerance="10"
     gridtolerance="10"
     guidetolerance="10"
     inkscape:pageopacity="0"
     inkscape:pageshadow="2"
     inkscape:window-width="1600"
     inkscape:window-height="861"
     id="namedview6"
     showgrid="false"
     inkscape:zoom="3.4260738"
     inkscape:cx="61.854743"
     inkscape:cy="21.367747"
     inkscape:window-x="0"
     inkscape:window-y="0"
     inkscape:window-maximized="1"
     inkscape:current-layer="svg4" />
  <path
     d="M 2.0269443,23.274597 H 29.865912 v 2.217722 H 4.5794743 V 42.181708 H 28.357781 v 2.217723 H 4.5794743 V 62.722879 H 30.155745 v 2.217723 H 2.0269443 Z m 30.3325317,0 h 2.958297 L 48.425224,41.598044 61.822509,23.274597 80.045015,0 50.107255,43.523935 65.534371,64.940602 H 62.460142 L 48.425224,45.449826 34.33234,64.940602 H 31.316077 L 46.859126,43.523935 32.360476,23.274597 Z m 34.27726,2.217722 v -2.217722 h 31.723731 v 2.217722 H 83.745883 v 39.447284 h -2.55253 V 25.492319 H 66.637736 Z M -32.8,23.274597 h 3.190163 L 14.375832,89.239609 -3.8016997,64.940602 -30.132536,26.425782 -30.248469,64.940602 H -32.8 Z M 98.104615,62.053265 c -0.522699,0 -0.913474,-0.404767 -0.913474,-0.927466 0,-0.523699 0.390775,-0.928465 0.912474,-0.928465 0.527696,0 0.912475,0.404766 0.912475,0.928465 0,0.522699 -0.384779,0.927466 -0.912475,0.927466 z m 2.506555,-2.441594 h 1.36621 c 0.019,0.741573 0.55968,1.239286 1.35323,1.239286 0.88748,0 1.39019,-0.534692 1.39019,-1.538114 v -6.352342 h 1.3902 v 6.358338 c 0,1.80696 -1.0424,2.847361 -2.7684,2.847361 -1.61907,0 -2.73043,-1.009419 -2.73043,-2.554529 z m 7.31779,-0.07995 h 1.3782 c 0.11794,0.852509 0.94946,1.394197 2.14777,1.394197 1.11635,0 1.93588,-0.579666 1.93588,-1.376208 0,-0.684605 -0.5207,-1.096368 -1.70701,-1.376207 l -1.15434,-0.279843 c -1.61907,-0.379781 -2.35864,-1.165329 -2.35864,-2.485568 0,-1.601078 1.30325,-2.666465 3.25812,-2.666465 1.81895,0 3.14819,1.065387 3.22814,2.578515 h -1.35322 c -0.12992,-0.827523 -0.84951,-1.345225 -1.89291,-1.345225 -1.09936,0 -1.83094,0.529695 -1.83094,1.339229 0,0.64163 0.47172,1.009418 1.63905,1.283261 l 0.98643,0.24286 c 1.83695,0.429752 2.59451,1.177322 2.59451,2.528544 0,1.71901 -1.32923,2.797389 -3.45101,2.797389 -1.98586,0 -3.32109,-1.028408 -3.42003,-2.635483 z"
     fill="#000000"
     fill-rule="nonzero"
     id="path2"
     style="stroke-width:0.999424" />
</svg>
