<?xml version="1.0" encoding="UTF-8" standalone="no"?>
<svg
   width="40.132"
   height="50"
   version="1.1"
   viewBox="0 0 40.132 50"
   id="svg18"
   sodipodi:docname="storybook.svg"
   inkscape:version="1.1.1 (1:1.1+202109281949+c3084ef5ed)"
   xmlns:inkscape="http://www.inkscape.org/namespaces/inkscape"
   xmlns:sodipodi="http://sodipodi.sourceforge.net/DTD/sodipodi-0.dtd"
   xmlns:xlink="http://www.w3.org/1999/xlink"
   xmlns="http://www.w3.org/2000/svg"
   xmlns:svg="http://www.w3.org/2000/svg"
   xmlns:rdf="http://www.w3.org/1999/02/22-rdf-syntax-ns#"
   xmlns:cc="http://creativecommons.org/ns#"
   xmlns:dc="http://purl.org/dc/elements/1.1/">
  <sodipodi:namedview
     id="namedview20"
     pagecolor="#ffffff"
     bordercolor="#666666"
     borderopacity="1.0"
     inkscape:pageshadow="2"
     inkscape:pageopacity="0.0"
     inkscape:pagecheckerboard="0"
     showgrid="false"
     width="40.132px"
     inkscape:zoom="6.265"
     inkscape:cx="48.443735"
     inkscape:cy="20.031923"
     inkscape:window-width="2560"
     inkscape:window-height="1019"
     inkscape:window-x="1920"
     inkscape:window-y="30"
     inkscape:window-maximized="1"
     inkscape:current-layer="storybook-logo/default" />
  <title
     id="title2">storybook-logo/default</title>
  <desc
     id="desc4">Created with Sketch.</desc>
  <defs
     id="defs7">
    <path
       id="path-1"
       d="M 1.2405585,36.858676 0.00144019,3.8417849 C -0.03948303,2.7513665 0.79661075,1.8272497 1.8856718,1.7591833 L 29.96885,0.0039847 c 1.108534,-0.06928338 2.063344,0.77319581 2.132627,1.8817299 0.0026,0.041765 0.0039,0.083602 0.0039,0.1254487 V 37.988905 C 32.105394,39.099602 31.204996,40 30.094299,40 c -0.03009,0 -0.06018,-6.75e-4 -0.09023,-0.002 L 3.160005,38.792322 C 2.1145351,38.745367 1.2798067,37.904463 1.2405585,36.858676 Z" />
  </defs>
  <g
     id="storybook-logo/default"
     fill="none"
     fill-rule="evenodd"
     stroke="none"
     stroke-width="1">
    <g
       id="storybook-icon/default"
       transform="scale(1.25)">
      <mask
         id="mask-2"
         fill="#ffffff">
        <use
           xlink:href="#path-1"
           id="use10"
           x="0"
           y="0"
           width="100%"
           height="100%" />
      </mask>
      <use
         id="path1_fill-path"
         fill="#ff4785"
         fill-rule="nonzero"
         xlink:href="#path-1"
         x="0"
         y="0"
         width="100%"
         height="100%" />
      <path
         id="path2_fill-path"
         fill="#ffffff"
         fill-rule="nonzero"
         d="M 23.707408,4.9166372 23.899231,0.30302366 27.755896,0 27.922044,4.7578601 c 0.0058,0.1655845 -0.123762,0.3045047 -0.289347,0.3102871 -0.0709,0.00248 -0.140386,-0.020255 -0.196115,-0.064157 L 25.949328,3.832385 24.188456,5.168114 C 24.056452,5.268247 23.868268,5.242411 23.768135,5.110407 23.725985,5.05484 23.704515,4.9863227 23.707405,4.9166376 Z"
         mask="url(#mask-2)" />
      <path
         id="path9_fill-path"
         fill="#ffffff"
         fill-rule="nonzero"
         d="m 18.775104,15.076547 c 0,0.782434 5.270366,0.407434 5.977866,-0.142172 0,-5.328186 -2.85898,-8.128064 -8.094254,-8.128064 -5.235274,0 -8.1685131,2.8434402 -8.1685131,7.108603 0,7.428491 10.0249931,7.570663 10.0249931,11.622567 0,1.137377 -0.556944,1.812694 -1.782221,1.812694 -1.596573,0 -2.227776,-0.81538 -2.153517,-3.587736 0,-0.601426 -6.0892551,-0.788926 -6.2749031,0 -0.4727355,6.718404 3.7129601,8.65625 8.5026791,8.65625 4.641201,0 8.279902,-2.473873 8.279902,-6.952294 0,-7.961636 -10.173511,-7.748378 -10.173511,-11.693653 0,-1.599436 1.188147,-1.812694 1.893609,-1.812694 0.742593,0 2.079258,0.130885 1.96787,3.116499 z"
         mask="url(#mask-2)" />
    </g>
  </g>
  <metadata
     id="metadata102">
    <rdf:RDF>
      <cc:Work
         rdf:about="">
        <dc:title>storybook-logo/default</dc:title>
      </cc:Work>
    </rdf:RDF>
  </metadata>
</svg>
